<svg xmlns="http://www.w3.org/2000/svg" viewBox="0 0 512 512"><g id="Solid"><rect x="88" y="104" width="48" height="32"/><circle cx="92" cy="76" r="12"/><path d="M56,176H88a8,8,0,0,1,4.648,1.488l39.54,28.242L128,185.63a8,8,0,0,1,7.832-9.63H200a24,24,0,0,0,24-24V56a24,24,0,0,0-24-24H56A24,24,0,0,0,32,56v96A24,24,0,0,0,56,176ZM88.518,48.213A27.884,27.884,0,0,1,112,56.466a27.962,27.962,0,1,1,39.924,39.159c.007.131.076.242.076.375v3.055l20.413-10.241A8,8,0,0,1,184,95.964v47.7a8,8,0,0,1-11.482,7.2L152,140.945V144a8,8,0,0,1-8,8H80a8,8,0,0,1-8-8V96c0-.133.069-.244.076-.375A27.965,27.965,0,0,1,88.518,48.213Z"/><path d="M208,360V312a24.027,24.027,0,0,0-24-24l-16.292-.307a8,8,0,0,1-7.58-10.058l3.567-13.389-39.726,22.7A8,8,0,0,1,120,288H56a24,24,0,0,0-24,24v48a24,24,0,0,0,24,24H184A24,24,0,0,0,208,360Zm-56-48h40v16H152ZM48,312h88v16H48Zm0,48V344H192v16Z"/><polygon points="168 108.945 152 116.945 152 123.055 168 131.055 168 108.945"/><path d="M296,80h70.526A23.96,23.96,0,0,0,344,64H240V96h24.2A39.828,39.828,0,0,1,296,80Z"/><circle cx="132" cy="76" r="12"/><path d="M404.528,266.025,384,280.688v60l29.656,29.656-11.312,11.312-67.491-67.49a20.284,20.284,0,0,0-28.685,0h0a20.284,20.284,0,0,0,0,28.686l51.489,51.493a8,8,0,0,1,.985,10.117l-3.6,5.359a60.021,60.021,0,0,0-7.687,16.453A61.984,61.984,0,0,0,356.039,480H440V336.32a72,72,0,0,0-17.781-47.379Z"/><circle cx="392" cy="144" r="16"/><path d="M387.445,222.584,328,178l-55.625,41.715A23.973,23.973,0,0,0,296,240h72.051a8,8,0,0,1,7.841,9.588l-4.08,20.142,39.54-28.242A8,8,0,0,1,416,240h40a23.986,23.986,0,0,0,23.6-19.989l-39.6-26.4-43.28,29.2A8,8,0,0,1,387.445,222.584Z"/><path d="M283.68,328a36.318,36.318,0,0,1,61.976-25.656L368,324.688v-32.57l-3.634,2.443a7.779,7.779,0,0,1-9.2-.381h0a7.781,7.781,0,0,1-2.782-7.538L358.242,256H296a40,40,0,0,1-40-40V120a39.955,39.955,0,0,1,.809-8H240v40a40,40,0,0,1-40,40H145.758l6.086,30.43A8,8,0,0,1,144,232v25.072l28.031-16.017a8,8,0,0,1,11.727,8.886L178.25,272H184a40,40,0,0,1,40,40v48a40,40,0,0,1-40,40H144v16H334.175a75.171,75.171,0,0,1,7.513-15l-47.344-47.348A36.054,36.054,0,0,1,283.68,328Z"/><path d="M456,96H296a24.027,24.027,0,0,0-24,24v80l51.2-38.4a7.992,7.992,0,0,1,9.594,0l59.476,44.6,43.289-28.859a8.01,8.01,0,0,1,8.876,0L480,201.052V120A24.027,24.027,0,0,0,456,96Zm-64,80a32,32,0,1,1,32-32A32.034,32.034,0,0,1,392,176Z"/><path d="M329.716,432H144v24a24.027,24.027,0,0,0,24,24H337.522A77.928,77.928,0,0,1,329.716,432ZM264,464H248V448h16Z"/></g></svg>