<svg width="612" height="53" viewBox="0 0 612 53" fill="none" xmlns="http://www.w3.org/2000/svg">
<path d="M32.0732 21.28C31.2626 19.7867 30.0893 18.656 28.5533 17.888C27.0599 17.0773 25.2893 16.672 23.2413 16.672C19.6999 16.672 16.8626 17.8453 14.7292 20.192C12.5959 22.496 11.5293 25.5893 11.5293 29.472C11.5293 33.6107 12.6386 36.8533 14.8573 39.2C17.1186 41.504 20.2119 42.656 24.1373 42.656C26.8253 42.656 29.0866 41.9733 30.9213 40.608C32.7986 39.2427 34.1639 37.28 35.0173 34.72H21.1293V26.656H44.9373V36.832C44.1266 39.5627 42.7399 42.1013 40.7773 44.448C38.8573 46.7947 36.4039 48.6933 33.4173 50.144C30.4306 51.5947 27.0599 52.32 23.3053 52.32C18.8679 52.32 14.8999 51.36 11.4013 49.44C7.94525 47.4773 5.23592 44.768 3.27325 41.312C1.35325 37.856 0.39325 33.9093 0.39325 29.472C0.39325 25.0347 1.35325 21.088 3.27325 17.632C5.23592 14.1333 7.94525 11.424 11.4013 9.504C14.8573 7.54133 18.8039 6.56 23.2413 6.56C28.6173 6.56 33.1399 7.86133 36.8093 10.464C40.5213 13.0667 42.9746 16.672 44.1693 21.28H32.0732ZM48.8233 34.08C48.8233 30.4107 49.5059 27.1893 50.8713 24.416C52.2793 21.6427 54.1779 19.5093 56.5673 18.016C58.9566 16.5227 61.6233 15.776 64.5673 15.776C67.0846 15.776 69.2819 16.288 71.1593 17.312C73.0793 18.336 74.5513 19.68 75.5753 21.344V16.288H86.5193V52H75.5753V46.944C74.5086 48.608 73.0153 49.952 71.0953 50.976C69.2179 52 67.0206 52.512 64.5033 52.512C61.6019 52.512 58.9566 51.7653 56.5673 50.272C54.1779 48.736 52.2793 46.5813 50.8713 43.808C49.5059 40.992 48.8233 37.7493 48.8233 34.08ZM75.5753 34.144C75.5753 31.4133 74.8073 29.2587 73.2713 27.68C71.7779 26.1013 69.9433 25.312 67.7673 25.312C65.5913 25.312 63.7353 26.1013 62.1993 27.68C60.7059 29.216 59.9593 31.3493 59.9593 34.08C59.9593 36.8107 60.7059 38.9867 62.1993 40.608C63.7353 42.1867 65.5913 42.976 67.7673 42.976C69.9433 42.976 71.7779 42.1867 73.2713 40.608C74.8073 39.0293 75.5753 36.8747 75.5753 34.144ZM105.381 21.344C106.405 19.68 107.877 18.336 109.797 17.312C111.717 16.288 113.914 15.776 116.389 15.776C119.333 15.776 121.999 16.5227 124.389 18.016C126.778 19.5093 128.655 21.6427 130.021 24.416C131.429 27.1893 132.133 30.4107 132.133 34.08C132.133 37.7493 131.429 40.992 130.021 43.808C128.655 46.5813 126.778 48.736 124.389 50.272C121.999 51.7653 119.333 52.512 116.389 52.512C113.871 52.512 111.674 52.0213 109.797 51.04C107.919 50.016 106.447 48.672 105.381 47.008V52H94.4368V4.64H105.381V21.344ZM120.997 34.08C120.997 31.3493 120.229 29.216 118.693 27.68C117.199 26.1013 115.343 25.312 113.125 25.312C110.949 25.312 109.093 26.1013 107.557 27.68C106.063 29.2587 105.317 31.4133 105.317 34.144C105.317 36.8747 106.063 39.0293 107.557 40.608C109.093 42.1867 110.949 42.976 113.125 42.976C115.301 42.976 117.157 42.1867 118.693 40.608C120.229 38.9867 120.997 36.8107 120.997 34.08ZM148.818 22.24C150.098 20.2773 151.698 18.7413 153.618 17.632C155.538 16.48 157.672 15.904 160.018 15.904V27.488H157.01C154.28 27.488 152.232 28.0853 150.866 29.28C149.501 30.432 148.818 32.48 148.818 35.424V52H137.874V16.288H148.818V22.24ZM170.753 12.576C168.833 12.576 167.255 12.0213 166.017 10.912C164.823 9.76 164.225 8.352 164.225 6.688C164.225 4.98133 164.823 3.57333 166.017 2.464C167.255 1.312 168.833 0.735996 170.753 0.735996C172.631 0.735996 174.167 1.312 175.361 2.464C176.599 3.57333 177.217 4.98133 177.217 6.688C177.217 8.352 176.599 9.76 175.361 10.912C174.167 12.0213 172.631 12.576 170.753 12.576ZM176.193 16.288V52H165.249V16.288H176.193ZM217.788 33.568C217.788 34.592 217.724 35.6587 217.596 36.768H192.828C192.999 38.9867 193.703 40.6933 194.94 41.888C196.22 43.04 197.778 43.616 199.612 43.616C202.343 43.616 204.242 42.464 205.308 40.16H216.956C216.359 42.5067 215.271 44.6187 213.692 46.496C212.156 48.3733 210.215 49.8453 207.868 50.912C205.522 51.9787 202.898 52.512 199.996 52.512C196.498 52.512 193.383 51.7653 190.652 50.272C187.922 48.7787 185.788 46.6453 184.252 43.872C182.716 41.0987 181.948 37.856 181.948 34.144C181.948 30.432 182.695 27.1893 184.188 24.416C185.724 21.6427 187.858 19.5093 190.588 18.016C193.319 16.5227 196.455 15.776 199.996 15.776C203.452 15.776 206.524 16.5013 209.212 17.952C211.9 19.4027 213.991 21.472 215.484 24.16C217.02 26.848 217.788 29.984 217.788 33.568ZM206.588 30.688C206.588 28.8107 205.948 27.3173 204.668 26.208C203.388 25.0987 201.788 24.544 199.868 24.544C198.034 24.544 196.476 25.0773 195.196 26.144C193.959 27.2107 193.191 28.7253 192.892 30.688H206.588ZM234.506 4.64V52H223.562V4.64H234.506ZM290.239 21.536C290.239 24.1387 289.642 26.528 288.447 28.704C287.253 30.8373 285.418 32.5653 282.943 33.888C280.469 35.2107 277.397 35.872 273.727 35.872H266.943V52H255.999V7.072H273.727C277.311 7.072 280.341 7.69066 282.815 8.928C285.29 10.1653 287.146 11.872 288.383 14.048C289.621 16.224 290.239 18.72 290.239 21.536ZM272.895 27.168C274.986 27.168 276.543 26.6773 277.567 25.696C278.591 24.7147 279.103 23.328 279.103 21.536C279.103 19.744 278.591 18.3573 277.567 17.376C276.543 16.3947 274.986 15.904 272.895 15.904H266.943V27.168H272.895ZM301.441 12.576C299.521 12.576 297.942 12.0213 296.705 10.912C295.51 9.76 294.913 8.352 294.913 6.688C294.913 4.98133 295.51 3.57333 296.705 2.464C297.942 1.312 299.521 0.735996 301.441 0.735996C303.318 0.735996 304.854 1.312 306.049 2.464C307.286 3.57333 307.905 4.98133 307.905 6.688C307.905 8.352 307.286 9.76 306.049 10.912C304.854 12.0213 303.318 12.576 301.441 12.576ZM306.881 16.288V52H295.937V16.288H306.881ZM312.636 34.08C312.636 30.4107 313.318 27.1893 314.684 24.416C316.092 21.6427 317.99 19.5093 320.38 18.016C322.769 16.5227 325.436 15.776 328.38 15.776C330.897 15.776 333.094 16.288 334.972 17.312C336.892 18.336 338.364 19.68 339.388 21.344V16.288H350.332V52H339.388V46.944C338.321 48.608 336.828 49.952 334.908 50.976C333.03 52 330.833 52.512 328.316 52.512C325.414 52.512 322.769 51.7653 320.38 50.272C317.99 48.736 316.092 46.5813 314.684 43.808C313.318 40.992 312.636 37.7493 312.636 34.08ZM339.388 34.144C339.388 31.4133 338.62 29.2587 337.084 27.68C335.59 26.1013 333.756 25.312 331.58 25.312C329.404 25.312 327.548 26.1013 326.012 27.68C324.518 29.216 323.772 31.3493 323.772 34.08C323.772 36.8107 324.518 38.9867 326.012 40.608C327.548 42.1867 329.404 42.976 331.58 42.976C333.756 42.976 335.59 42.1867 337.084 40.608C338.62 39.0293 339.388 36.8747 339.388 34.144ZM380.009 15.904C384.191 15.904 387.519 17.2693 389.993 20C392.511 22.688 393.769 26.4 393.769 31.136V52H382.889V32.608C382.889 30.2187 382.271 28.3627 381.033 27.04C379.796 25.7173 378.132 25.056 376.041 25.056C373.951 25.056 372.287 25.7173 371.049 27.04C369.812 28.3627 369.193 30.2187 369.193 32.608V52H358.249V16.288H369.193V21.024C370.303 19.4453 371.796 18.208 373.673 17.312C375.551 16.3733 377.663 15.904 380.009 15.904ZM421.278 42.72V52H415.71C411.742 52 408.649 51.04 406.43 49.12C404.212 47.1573 403.102 43.9787 403.102 39.584V25.376H398.75V16.288H403.102V7.584H414.046V16.288H421.214V25.376H414.046V39.712C414.046 40.7787 414.302 41.5467 414.814 42.016C415.326 42.4853 416.18 42.72 417.374 42.72H421.278ZM425.198 34.08C425.198 30.4107 425.881 27.1893 427.246 24.416C428.654 21.6427 430.553 19.5093 432.942 18.016C435.332 16.5227 437.998 15.776 440.942 15.776C443.46 15.776 445.657 16.288 447.534 17.312C449.454 18.336 450.926 19.68 451.95 21.344V16.288H462.894V52H451.95V46.944C450.884 48.608 449.39 49.952 447.47 50.976C445.593 52 443.396 52.512 440.878 52.512C437.977 52.512 435.332 51.7653 432.942 50.272C430.553 48.736 428.654 46.5813 427.246 43.808C425.881 40.992 425.198 37.7493 425.198 34.08ZM451.95 34.144C451.95 31.4133 451.182 29.2587 449.646 27.68C448.153 26.1013 446.318 25.312 444.142 25.312C441.966 25.312 440.11 26.1013 438.574 27.68C437.081 29.216 436.334 31.3493 436.334 34.08C436.334 36.8107 437.081 38.9867 438.574 40.608C440.11 42.1867 441.966 42.976 444.142 42.976C446.318 42.976 448.153 42.1867 449.646 40.608C451.182 39.0293 451.95 36.8747 451.95 34.144ZM492.572 15.904C496.753 15.904 500.081 17.2693 502.556 20C505.073 22.688 506.332 26.4 506.332 31.136V52H495.452V32.608C495.452 30.2187 494.833 28.3627 493.596 27.04C492.358 25.7173 490.694 25.056 488.604 25.056C486.513 25.056 484.849 25.7173 483.612 27.04C482.374 28.3627 481.756 30.2187 481.756 32.608V52H470.812V16.288H481.756V21.024C482.865 19.4453 484.358 18.208 486.236 17.312C488.113 16.3733 490.225 15.904 492.572 15.904ZM519.441 12.576C517.521 12.576 515.942 12.0213 514.705 10.912C513.51 9.76 512.913 8.352 512.913 6.688C512.913 4.98133 513.51 3.57333 514.705 2.464C515.942 1.312 517.521 0.735996 519.441 0.735996C521.318 0.735996 522.854 1.312 524.049 2.464C525.286 3.57333 525.905 4.98133 525.905 6.688C525.905 8.352 525.286 9.76 524.049 10.912C522.854 12.0213 521.318 12.576 519.441 12.576ZM524.881 16.288V52H513.937V16.288H524.881ZM530.636 34.08C530.636 30.4107 531.318 27.1893 532.684 24.416C534.092 21.6427 535.99 19.5093 538.38 18.016C540.769 16.5227 543.436 15.776 546.38 15.776C548.726 15.776 550.86 16.2667 552.78 17.248C554.742 18.2293 556.278 19.552 557.388 21.216V4.64H568.332V52H557.388V46.88C556.364 48.5867 554.892 49.952 552.972 50.976C551.094 52 548.897 52.512 546.38 52.512C543.436 52.512 540.769 51.7653 538.38 50.272C535.99 48.736 534.092 46.5813 532.684 43.808C531.318 40.992 530.636 37.7493 530.636 34.08ZM557.388 34.144C557.388 31.4133 556.62 29.2587 555.084 27.68C553.59 26.1013 551.756 25.312 549.58 25.312C547.404 25.312 545.548 26.1013 544.012 27.68C542.518 29.216 541.772 31.3493 541.772 34.08C541.772 36.8107 542.518 38.9867 544.012 40.608C545.548 42.1867 547.404 42.976 549.58 42.976C551.756 42.976 553.59 42.1867 555.084 40.608C556.62 39.0293 557.388 36.8747 557.388 34.144ZM574.073 34.08C574.073 30.4107 574.756 27.1893 576.121 24.416C577.529 21.6427 579.428 19.5093 581.817 18.016C584.207 16.5227 586.873 15.776 589.817 15.776C592.335 15.776 594.532 16.288 596.409 17.312C598.329 18.336 599.801 19.68 600.825 21.344V16.288H611.769V52H600.825V46.944C599.759 48.608 598.265 49.952 596.345 50.976C594.468 52 592.271 52.512 589.753 52.512C586.852 52.512 584.207 51.7653 581.817 50.272C579.428 48.736 577.529 46.5813 576.121 43.808C574.756 40.992 574.073 37.7493 574.073 34.08ZM600.825 34.144C600.825 31.4133 600.057 29.2587 598.521 27.68C597.028 26.1013 595.193 25.312 593.017 25.312C590.841 25.312 588.985 26.1013 587.449 27.68C585.956 29.216 585.209 31.3493 585.209 34.08C585.209 36.8107 585.956 38.9867 587.449 40.608C588.985 42.1867 590.841 42.976 593.017 42.976C595.193 42.976 597.028 42.1867 598.521 40.608C600.057 39.0293 600.825 36.8747 600.825 34.144Z" fill="#111111"/>
</svg>
