<svg width="70" height="102" viewBox="0 0 70 102" fill="none" xmlns="http://www.w3.org/2000/svg">
<path d="M3.18182 38.2282H6.36364C8.12159 38.2282 9.54545 39.6537 9.54545 41.4138V50.9709C9.54545 65.8639 22.3702 77.8142 37.5435 76.3329C50.7679 75.0407 60.4545 63.1382 60.4545 49.836V41.4138C60.4545 39.6537 61.8784 38.2282 63.6364 38.2282H66.8182C68.5761 38.2282 70 39.6537 70 41.4138V49.4099C70 67.2577 57.2787 83.1681 39.7727 85.5853V92.3847H50.9091C52.667 92.3847 54.0909 93.8103 54.0909 95.5704V98.7561C54.0909 100.516 52.667 101.942 50.9091 101.942H19.0909C17.333 101.942 15.9091 100.516 15.9091 98.7561V95.5704C15.9091 93.8103 17.333 92.3847 19.0909 92.3847H30.2273V85.6609C13.1827 83.3195 0 68.6713 0 50.9709V41.4138C0 39.6537 1.42386 38.2282 3.18182 38.2282ZM35 70.085C24.4563 70.085 15.9091 61.5274 15.9091 50.9709H32.8781C34.0494 50.9709 35 50.2581 35 49.378V46.1924C35 45.3123 34.0494 44.5995 32.8781 44.5995H15.9091V38.2282H32.8781C34.0494 38.2282 35 37.5154 35 36.6353V33.4496C35 32.5696 34.0494 31.8568 32.8781 31.8568H15.9091V25.4854H32.8781C34.0494 25.4854 35 24.7726 35 23.8926V20.7069C35 19.8269 34.0494 19.1141 32.8781 19.1141H15.9091C15.9091 8.55753 24.4563 0 35 0C45.5437 0 54.0909 8.55753 54.0909 19.1141V50.9709C54.0909 61.5274 45.5437 70.085 35 70.085Z" fill="#141414"/>
</svg>
