<svg width="100" height="100" viewBox="0 0 100 100" fill="none" xmlns="http://www.w3.org/2000/svg">
<path d="M13.5 25.6251C10.4583 26.7918 8.33334 29.8751 8.33334 33.3334V83.3335C8.33334 87.9168 12.0833 91.6668 16.6667 91.6668H83.3333C85.5435 91.6668 87.6631 90.7888 89.2259 89.226C90.7887 87.6632 91.6667 85.5436 91.6667 83.3335V33.3334C91.6667 28.7501 87.9167 25.0001 83.3333 25.0001H34.5833L65.5417 12.5001C67.4583 11.7084 68.375 9.54178 67.5833 7.62512C67.3986 7.16993 67.1257 6.75577 66.7803 6.40649C66.4349 6.05721 66.0238 5.77969 65.5707 5.58993C65.1175 5.40017 64.6314 5.3019 64.1401 5.30079C63.6489 5.29968 63.1623 5.39574 62.7083 5.58345L13.5 25.6251ZM29.1667 83.3335C22.25 83.3335 16.6667 77.7501 16.6667 70.8335C16.6667 63.9168 22.25 58.3334 29.1667 58.3334C36.0833 58.3334 41.6667 63.9168 41.6667 70.8335C41.6667 77.7501 36.0833 83.3335 29.1667 83.3335ZM83.3333 50.0001H75V45.8334C75 43.5418 73.125 41.6668 70.8333 41.6668C68.5417 41.6668 66.6667 43.5418 66.6667 45.8334V50.0001H16.6667V37.5001C16.6667 35.2084 18.5417 33.3334 20.8333 33.3334H79.1667C81.4583 33.3334 83.3333 35.2084 83.3333 37.5001V50.0001Z" fill="black"/>
</svg>
